<?xml version="1.0" encoding="iso-8859-1"?>
<!-- Generator: Adobe Illustrator 19.0.0, SVG Export Plug-In . SVG Version: 6.00 Build 0)  -->
<svg version="1.1" id="Capa_1" xmlns="http://www.w3.org/2000/svg" xmlns:xlink="http://www.w3.org/1999/xlink" x="0px" y="0px"
	 viewBox="0 0 512.026 512.026" style="enable-background:new 0 0 512.026 512.026;" xml:space="preserve">
<rect x="403.195" y="448.638" transform="matrix(-0.3827 -0.9239 0.9239 -0.3827 192.9757 1056.2188)" style="fill:#1C1207;" width="92.322" height="30.001"/>
<g>
	
		<rect x="47.666" y="417.459" transform="matrix(-0.9239 -0.3827 0.3827 -0.9239 -56.8615 915.9297)" style="fill:#3D3220;" width="30.001" height="92.322"/>
	<path style="fill:#3D3220;" d="M481.643,135l-285.63-60l60,437c141.385,0,256-114.615,256-256
		C512.013,212.227,501.012,171.03,481.643,135z"/>
</g>
<path style="fill:#544A33;" d="M30.383,135c-19.369,36.03-30.37,77.227-30.37,121c0,141.385,114.615,256,256,256V75
	C256.011,75,30.383,135,30.383,135z"/>
<path style="fill:#1C1207;" d="M256.013,30l-60,226l60,226c124.816,0,226-101.184,226-226S380.829,30,256.013,30z"/>
<path style="fill:#3D3220;" d="M30.013,256c0,124.816,101.184,226,226,226V30C131.197,30,30.013,131.184,30.013,256z"/>
<path style="fill:#FFA533;" d="M421.013,60.285V15h-225l60,120c39.579,0.002,49.103,17.305,74.226,25.628V285
	c0,16.569,13.431,30,30,30s30-13.431,30-30V160.628C415.364,152.304,424.887,135,464.471,135h17.172
	C466.272,106.406,445.634,81.063,421.013,60.285z"/>
<path style="fill:#FFCB47;" d="M91.013,15v45.285C66.392,81.063,45.754,106.406,30.383,135h17.172c52.112,0,52.112,30,104.224,30
	c52.114,0,52.114-30,104.227-30c0.007,0,0.007-120,0.007-120H91.013z"/>
<polygon style="fill:#FE7F1E;" points="256.013,0 241.013,15 256.013,30 451.013,30 451.013,0 "/>
<rect x="61.013" style="fill:#FFA533;" width="195" height="30"/>
<g>
</g>
<g>
</g>
<g>
</g>
<g>
</g>
<g>
</g>
<g>
</g>
<g>
</g>
<g>
</g>
<g>
</g>
<g>
</g>
<g>
</g>
<g>
</g>
<g>
</g>
<g>
</g>
<g>
</g>
</svg>
