<?xml version="1.0" encoding="iso-8859-1"?>
<!-- Generator: Adobe Illustrator 19.0.0, SVG Export Plug-In . SVG Version: 6.00 Build 0)  -->
<svg version="1.1" id="Layer_1" xmlns="http://www.w3.org/2000/svg" xmlns:xlink="http://www.w3.org/1999/xlink" x="0px" y="0px"
	 viewBox="0 0 512 512" style="enable-background:new 0 0 512 512;" xml:space="preserve">
<path style="fill:#BC9A5E;" d="M481.391,22.261v97.948L30.767,137.622c0.057-7.962-0.155-14.706-0.158-22.979l0,0
	C30.695,51.302,82.069,0,145.41,0h313.582C471.362,0,481.391,9.966,481.391,22.261z"/>
<path style="fill:#916D42;" d="M473.737,17.073c3.15-2.37,7.652-0.122,7.652,3.819v13.766v85.551v296.998
	c0,8.803-7.623,15.943-14.47,20.767l-96.235,70.825l8.386-405.286l-4.359-11.936L473.737,17.073z"/>
<path style="fill:#CAA661;" d="M74.799,512c-24.213,0-44.033-19.755-44.033-43.901V117.528c0-24.146,19.819-43.903,44.033-43.903
	h278.354c24.222,0,44.036,19.757,44.036,43.903v350.571c0,24.146-19.813,43.901-44.036,43.901H74.799L74.799,512z"/>
<path style="fill:#916D42;" d="M336.379,427.59c0,4.917-3.987,8.904-8.904,8.904H100.481c-4.917,0-8.904-3.987-8.904-8.904
	s3.987-8.904,8.904-8.904h226.994C332.392,418.686,336.379,422.673,336.379,427.59z"/>
<path style="fill:#FF4328;" d="M213.98,383.81c-61.628,0-112.043-50.268-112.043-111.705v-37.236h224.082v37.236
	C326.019,333.541,275.599,383.81,213.98,383.81L213.98,383.81L213.98,383.81z"/>
<path style="fill:#981700;" d="M326.019,234.87v37.236c0,61.437-50.419,111.705-112.038,111.705
	c-61.628,0-112.043-50.268-112.043-111.705V234.87h16.696v37.236c0,52.388,42.773,95.009,95.349,95.009
	c52.571,0,95.342-42.621,95.342-95.009V234.87L326.019,234.87L326.019,234.87z"/>
<path style="fill:#7A1700;" d="M219.974,333.994c-10.839,6.237-24.822,2.502-31.077-8.302l-9.441-16.298
	c-4.645-8.019-3.768-17.761,1.42-24.804l-79.969-136.322c-2.488-4.242-1.066-9.698,3.176-12.186s9.697-1.066,12.186,3.176
	l79.977,136.337c8.824-1.114,17.907,2.987,22.617,11.12l9.441,16.297C234.553,313.817,230.806,327.757,219.974,333.994z"/>
<g>
</g>
<g>
</g>
<g>
</g>
<g>
</g>
<g>
</g>
<g>
</g>
<g>
</g>
<g>
</g>
<g>
</g>
<g>
</g>
<g>
</g>
<g>
</g>
<g>
</g>
<g>
</g>
<g>
</g>
</svg>
