<?xml version="1.0" encoding="iso-8859-1"?>
<!-- Generator: Adobe Illustrator 19.0.0, SVG Export Plug-In . SVG Version: 6.00 Build 0)  -->
<svg version="1.1" id="Capa_1" xmlns="http://www.w3.org/2000/svg" xmlns:xlink="http://www.w3.org/1999/xlink" x="0px" y="0px"
	 viewBox="0 0 511.994 511.994" style="enable-background:new 0 0 511.994 511.994;" xml:space="preserve">
<path style="fill:#F8B64C;" d="M331.485,335.685c0.544,20.48,4.789,40.853,12.683,61.227c-58.773,12.8-117.547,12.8-176.309,0
	c16.96-44.16,16.96-88.427,0-132.587c58.773-12.8,117.547-12.8,176.309,0c-1.163,2.987-2.229,5.867-3.083,8.853h-0.107
	c-6.933,20.693-10.144,41.493-9.504,62.293v0.213H331.485z"/>
<path style="fill:#F2F2F2;" d="M331.592,335.567v0.32l-75.605,61.024l-75.584-61.024v-0.32l-82.144,32.277
	c-59.253,23.296-98.229,80.48-98.229,144.149h255.957h255.979c0-63.669-38.955-120.853-98.229-144.149L331.592,335.567z"/>
<polygon style="fill:#40596B;" points="290.045,430.97 256.008,396.911 221.949,430.97 237.949,446.981 231.72,511.994 
	280.232,511.994 274.088,446.927 "/>
<g style="opacity:0.1;">
	<g>
		<path style="fill:#40596B;" d="M340.989,273.178c-6.933,20.693-10.144,41.493-9.504,62.293v0.213l-53.547,43.413l-61.984-45.973
			l33.291-41.067L340.989,273.178z"/>
	</g>
</g>
<g>
	<path style="fill:#F8B64C;" d="M175.762,192.911c1.664,19.147-7.627,35.605-20.747,36.747
		c-13.141,1.152-25.141-13.44-26.837-32.587c-1.664-19.147,7.627-35.605,20.747-36.747
		C162.066,159.173,174.066,173.775,175.762,192.911"/>
	<path style="fill:#F8B64C;" d="M383.816,197.082c-1.685,19.147-13.685,33.739-26.816,32.587
		c-13.141-1.141-22.443-17.6-20.768-36.747c1.685-19.147,13.685-33.739,26.837-32.587C376.2,161.477,385.49,177.935,383.816,197.082
		"/>
</g>
<path style="fill:#FFD15C;" d="M366.482,142.821v36.267c-0.107,7.68-0.544,15.36-1.504,22.933c-1.6,12.587-4.267,24.96-8,36.907
	c-9.067,28.907-24.309,55.573-44.896,78.08l-10.56,11.52c-9.6,10.56-23.253,16.533-37.547,16.533h-16
	c-14.187,0-27.851-6.08-37.461-16.533l-10.443-11.52c-14.624-15.893-26.56-34.027-35.413-53.333
	c-8.96-19.413-14.933-40.224-17.504-61.653c-0.96-7.573-1.483-15.253-1.483-22.933c-0.128-0.853-0.128-1.6-0.128-2.453v-33.173
	c0-10.443,1.504-20.683,4.267-30.293c13.12-46.187,55.691-80.107,106.251-80.107c50.443,0,93.003,33.92,106.123,80.107
	C364.989,122.554,366.482,132.581,366.482,142.821"/>
<g>
	<polygon style="fill:#CDD6E0;" points="256.008,396.911 331.634,335.546 336.05,337.295 301.906,443.013 	"/>
	<polygon style="fill:#CDD6E0;" points="256.029,396.911 180.402,335.546 175.986,337.295 210.13,443.013 	"/>
</g>
<g>
	<path style="fill:#ACB3BA;" d="M354.504,324.687c-0.128,0.117-0.224,0.117-0.224,0.117v-0.235
		C354.386,324.57,354.504,324.687,354.504,324.687"/>
	<path style="fill:#ACB3BA;" d="M354.984,324.57v0.235c0,0-0.128,0-0.245-0.117C354.738,324.687,354.866,324.57,354.984,324.57"/>
</g>
<path style="fill:#40596B;" d="M364.754,205.999c3.563-34.912-2.859-58.037-7.851-70.037c-2.955-7.072-3.712-14.709-2.667-22.304
	c4.587-33.141-12.832-28.661-12.832-28.661c-37.461,18.411-85.376,18.005-85.376,18.005s-47.915,0.405-85.376-18.005
	c0,0-17.419-4.48-12.832,28.661c1.067,7.595,0.288,15.232-2.667,22.304c-4.981,12-11.413,35.125-7.829,70.037
	c0,0-73.109-213.749,108.704-205.781C437.842-7.761,364.754,205.999,364.754,205.999"/>
<path style="fill:#CDD6E0;" d="M405.97,431.546c0,13.824-11.211,25.035-25.024,25.035c-13.835,0-25.067-11.211-25.067-25.035
	c0-13.835,11.232-25.035,25.067-25.035C394.76,406.522,405.97,417.722,405.97,431.546"/>
<path style="fill:#F2F2F2;" d="M395.837,431.546c0,8.224-6.667,14.901-14.912,14.901c-8.213,0-14.891-6.677-14.891-14.901
	s6.688-14.901,14.891-14.901C389.17,416.655,395.837,423.333,395.837,431.546"/>
<g>
	<path style="fill:#D7D8DB;" d="M390.781,410.287l-12.565-2.507c0.064-0.341,6.379-33.376-9.6-52.853
		c-7.936-9.653-20.416-14.549-37.088-14.549v-12.811c20.704,0,36.523,6.485,46.997,19.285
		C398.365,371.066,391.09,408.709,390.781,410.287"/>
	<path style="fill:#D7D8DB;" d="M180.488,325.125c-15.829,1.813-28.245,8.096-36.981,18.741
		c-19.829,24.203-12.544,61.835-12.213,63.424l12.544-2.517c-0.064-0.331-6.453-33.227,9.579-52.789
		c6.229-7.627,15.296-12.288,26.997-13.931C181.298,337.925,181.277,325.039,180.488,325.125"/>
	<path style="fill:#D7D8DB;" d="M107.837,499.002l-2.165-3.477c-8.213-13.163-13.269-26.976-14.976-41.035
		c-3.669-29.717,17.525-57.088,47.211-61.024c30.421-3.755,57.92,17.408,61.856,47.093c1.856,14.048,0.459,28.672-4.192,43.477
		l-1.227,3.915l-16.565,2.112l-1.621-12.704l8.352-1.067c3.147-11.648,4.021-23.083,2.56-34.037
		c-3.019-22.752-23.957-38.955-46.773-36.192c-23.477,3.115-39.712,24.096-36.896,46.869c1.333,10.965,5.067,21.824,11.04,32.309
		l8.331-1.067l1.621,12.715L107.837,499.002z"/>
</g>
<g>
	<path style="fill:#ACB3BA;" d="M141.192,488.282c0.981,7.627-4.416,14.592-12.043,15.563c-7.627,0.981-11.147-26.635-3.52-27.605
		C133.256,475.279,140.232,480.666,141.192,488.282"/>
	<path style="fill:#ACB3BA;" d="M159.357,485.967c0.96,7.627,7.936,13.013,15.563,12.043c7.627-0.971,4.107-28.587-3.52-27.605
		C163.773,471.375,158.386,478.341,159.357,485.967"/>
</g>
<g>
</g>
<g>
</g>
<g>
</g>
<g>
</g>
<g>
</g>
<g>
</g>
<g>
</g>
<g>
</g>
<g>
</g>
<g>
</g>
<g>
</g>
<g>
</g>
<g>
</g>
<g>
</g>
<g>
</g>
</svg>
